HIERARCHY
ROOT Hips
{
	OFFSET 0.00000 0.00000 0.00000
	CHANNELS 6 Xposition Yposition Zposition Zrotation Yrotation Xrotation 
	JOINT LHipJoint
	{
		OFFSET 0 0 0
		CHANNELS 3 Zrotation Yrotation Xrotation
		JOINT LeftUpLeg
		{
			OFFSET 3.13874 -1.57224 1.49786
			CHANNELS 3 Zrotation Yrotation Xrotation
			JOINT LeftLeg
			{
				OFFSET 2.10955 -5.79594 0.00000
				CHANNELS 3 Zrotation Yrotation Xrotation
				JOINT LeftFoot
				{
					OFFSET 2.41843 -6.64458 0.00000
					CHANNELS 3 Zrotation Yrotation Xrotation
					JOINT LeftToeBase
					{
						OFFSET 0.04713 -0.12948 1.66229
						CHANNELS 3 Zrotation Yrotation Xrotation
						End Site
						{
							OFFSET 0.00000 -0.00000 0.85167
						}
					}
				}
			}
		}
	}
	JOINT RHipJoint
	{
		OFFSET 0 0 0
		CHANNELS 3 Zrotation Yrotation Xrotation
		JOINT RightUpLeg
		{
			OFFSET -3.13988 -1.57224 1.49786
			CHANNELS 3 Zrotation Yrotation Xrotation
			JOINT RightLeg
			{
				OFFSET -2.15006 -5.90725 0.00000
				CHANNELS 3 Zrotation Yrotation Xrotation
				JOINT RightFoot
				{
					OFFSET -2.34496 -6.44273 0.00000
					CHANNELS 3 Zrotation Yrotation Xrotation
					JOINT RightToeBase
					{
						OFFSET -0.08699 -0.23900 1.55223
						CHANNELS 3 Zrotation Yrotation Xrotation
						End Site
						{
							OFFSET -0.00000 -0.00000 0.80281
						}
					}
				}
			}
		}
	}
	JOINT LowerBack
	{
		OFFSET 0 0 0
		CHANNELS 3 Zrotation Yrotation Xrotation
		JOINT Spine
		{
			OFFSET 0.01292 1.96517 -0.16495
			CHANNELS 3 Zrotation Yrotation Xrotation
			JOINT Spine1
			{
				OFFSET 0.02122 1.88666 0.19706
				CHANNELS 3 Zrotation Yrotation Xrotation
				JOINT Neck
				{
					OFFSET 0 0 0
					CHANNELS 3 Zrotation Yrotation Xrotation
					JOINT Neck1
					{
						OFFSET -0.01683 1.81591 0.07903
						CHANNELS 3 Zrotation Yrotation Xrotation
						JOINT Head
						{
							OFFSET 0.00815 1.74013 -0.47700
							CHANNELS 3 Zrotation Yrotation Xrotation
							End Site
							{
								OFFSET -0.00204 1.83225 -0.16933
							}
						}
					}
				}
				JOINT LeftShoulder
				{
					OFFSET 0 0 0
					CHANNELS 3 Zrotation Yrotation Xrotation
					JOINT LeftArm
					{
						OFFSET 3.38482 1.41533 0.19802
						CHANNELS 3 Zrotation Yrotation Xrotation
						JOINT LeftForeArm
						{
							OFFSET 4.32712 -0.00000 0.00000
							CHANNELS 3 Zrotation Yrotation Xrotation
							JOINT LeftHand
							{
								OFFSET 3.28587 -0.00000 -0.00000
								CHANNELS 3 Zrotation Yrotation Xrotation
								JOINT LeftFingerBase
								{
									OFFSET 0 0 0
									CHANNELS 3 Zrotation Yrotation Xrotation
									JOINT LeftHandIndex1
									{
										OFFSET 0.43316 -0.00000 -0.00000
										CHANNELS 3 Zrotation Yrotation Xrotation
										End Site
										{
											OFFSET 0.34922 -0.00000 -0.00000
										}
									}
								}
								JOINT LThumb
								{
									OFFSET 0 0 0
									CHANNELS 3 Zrotation Yrotation Xrotation
									End Site
									{
										OFFSET 0.35456 -0.00000 0.35456
									}
								}
							}
						}
					}
				}
				JOINT RightShoulder
				{
					OFFSET 0 0 0
					CHANNELS 3 Zrotation Yrotation Xrotation
					JOINT RightArm
					{
						OFFSET -3.09725 1.62858 -0.14144
						CHANNELS 3 Zrotation Yrotation Xrotation
						JOINT RightForeArm
						{
							OFFSET -4.29104 -0.00000 0.00000
							CHANNELS 3 Zrotation Yrotation Xrotation
							JOINT RightHand
							{
								OFFSET -3.22720 -0.00000 -0.00000
								CHANNELS 3 Zrotation Yrotation Xrotation
								JOINT RightFingerBase
								{
									OFFSET 0 0 0
									CHANNELS 3 Zrotation Yrotation Xrotation
									JOINT RightHandIndex1
									{
										OFFSET -0.54362 -0.00000 -0.00000
										CHANNELS 3 Zrotation Yrotation Xrotation
										End Site
										{
											OFFSET -0.43828 -0.00000 -0.00000
										}
									}
								}
								JOINT RThumb
								{
									OFFSET 0 0 0
									CHANNELS 3 Zrotation Yrotation Xrotation
									End Site
									{
										OFFSET -0.44497 -0.00000 0.44497
									}
								}
							}
						}
					}
				}
			}
		}
	}
}
MOTION
Frames: 15
Frame Time: .0083333
-7.2991 16.3846 4.8627 -27.7978 79.3404 -17.7211 0.0000 0.0000 0.0000 -23.5567 -21.7419 -4.4593 0.0623 1.6099 4.4286 1.2685 0.4576 -21.4665 2.0486 -8.9665 -25.6907 0.0000 0.0000 0.0000 34.8772 7.1342 -7.3847 -1.1092 -6.6912 18.8037 -0.0361 -7.6924 -11.7082 -2.6967 10.1871 -29.5847 4.6992 0.6276 9.4743 2.2188 2.2095 -9.4741 -0.6640 0.7629 -15.9176 1.1906 -2.9809 -10.6626 -1.8163 -1.4330 46.5337 -1.0672 0.3436 19.9398 0.0000 -0.0000 0.0000 -77.0248 12.6990 23.9063 19.5289 -30.0705 -5.2932 -0.0000 -0.0000 11.6799 35.2205 24.9974 16.6110 -7.1250 0.0000 -0.0000 6.6796 59.5705 2.3830 0.0000 -0.0000 0.0000 69.5938 -19.2674 43.3230 -41.5327 48.9522 -19.5874 0.0000 -0.0000 -14.6428 -27.3792 -16.6101 8.4211 7.1250 -0.0000 -0.0000 0.4305 -48.5483 -0.0377
-7.2386 16.3336 4.8601 -26.0669 79.1639 -16.0494 0.0000 0.0000 0.0000 -24.0606 -21.5709 -4.2062 0.0675 1.6758 4.6105 1.3333 -0.5550 -21.6659 1.9550 -8.7717 -25.0837 0.0000 0.0000 0.0000 34.3101 7.5138 -8.7767 -1.4564 -7.6277 21.5889 -0.1288 -6.7179 -12.2524 -3.7325 11.7956 -35.0127 4.1154 0.6447 9.5865 2.1848 2.1303 -9.4683 -0.3600 0.7862 -15.9971 1.3618 -2.9155 -10.8071 -1.8320 -1.4656 46.1694 -1.1168 0.3286 19.7207 0.0000 -0.0000 0.0000 -77.2377 12.8881 23.4774 19.8918 -30.5118 -5.4763 -0.0000 -0.0000 10.7838 35.6486 24.0088 16.2682 -7.1250 0.0000 -0.0000 7.3427 58.5576 2.4427 0.0000 -0.0000 0.0000 69.7057 -19.1154 42.7415 -41.8672 49.1380 -19.8400 0.0000 -0.0000 -14.9856 -27.3740 -16.5211 8.3760 7.1250 -0.0000 -0.0000 0.4213 -48.4494 -0.0359
-7.1902 16.2990 4.8625 -24.0132 79.1091 -13.9375 0.0000 0.0000 0.0000 -24.5372 -21.3276 -4.3559 0.0793 1.8162 4.9981 1.3461 -1.4369 -21.5150 1.9034 -8.6619 -24.7433 0.0000 0.0000 0.0000 33.6396 8.3787 -10.1863 -1.8011 -8.4389 24.0553 -0.2306 -5.7665 -12.9992 -4.6721 13.0047 -39.3862 3.4469 0.6492 9.6414 2.1253 2.0105 -9.4594 -0.0265 0.7997 -16.0370 1.4621 -2.8514 -11.0162 -1.8236 -1.4996 45.7460 -1.1425 0.2987 19.4861 -0.0000 0.0000 0.0000 -77.4338 12.8860 23.1400 20.1048 -30.7684 -5.5849 -0.0000 -0.0000 9.9341 35.5514 24.1042 16.2704 -7.1250 0.0000 -0.0000 7.2131 58.6418 2.4139 -0.0000 0.0000 0.0000 69.8261 -18.9312 42.3062 -41.8767 49.1433 -19.8472 0.0000 -0.0000 -15.3599 -27.4124 -16.4745 8.3669 7.1250 -0.0000 -0.0000 0.3765 -48.4040 -0.0316
-7.1513 16.2797 4.8686 -22.0672 79.1313 -11.8412 0.0000 0.0000 0.0000 -24.9214 -21.1335 -4.6905 0.0943 1.9803 5.4512 1.3327 -2.1984 -21.2150 1.8848 -8.6218 -24.6192 0.0000 0.0000 0.0000 32.9787 9.6447 -11.3988 -2.0642 -8.9985 25.7906 -0.3497 -4.7734 -13.9563 -5.3640 13.7823 -42.3723 2.8335 0.6387 9.6499 2.0589 1.8753 -9.4412 0.2732 0.8001 -16.0329 1.5177 -2.7836 -11.2770 -1.8146 -1.5227 45.2626 -1.1581 0.2612 19.2325 0.0000 -0.0000 0.0000 -77.6129 12.6662 22.8861 20.1348 -30.8044 -5.6002 -0.0000 -0.0000 9.2034 35.3036 24.6933 16.4798 -7.1250 0.0000 -0.0000 6.8288 59.2475 2.3837 0.0000 -0.0000 0.0000 69.9555 -18.7021 42.0433 -41.4734 48.9190 -19.5427 0.0000 -0.0000 -15.6976 -27.5437 -16.4608 8.4065 7.1250 -0.0000 -0.0000 0.2464 -48.4098 -0.0207
-7.1183 16.2744 4.8765 -20.5844 79.1876 -10.1455 0.0000 0.0000 0.0000 -25.1833 -21.0938 -5.0111 0.1073 2.1125 5.8166 1.3192 -2.8173 -20.9702 1.8937 -8.6410 -24.6785 0.0000 0.0000 0.0000 32.4147 11.2126 -12.2295 -2.1723 -9.2161 26.4736 -0.4918 -3.6650 -15.0971 -5.6538 14.0842 -43.5758 2.4023 0.6154 9.6190 2.0022 1.7546 -9.4140 0.4793 0.7880 -15.9871 1.5328 -2.7096 -11.5755 -1.8161 -1.5220 44.7381 -1.1673 0.2226 18.9700 0.0000 0.0000 0.0000 -77.7852 12.2478 22.7045 19.9840 -30.6231 -5.5232 -0.0000 -0.0000 8.6975 35.1418 25.3109 16.7486 -7.1250 0.0000 -0.0000 6.5307 59.9042 2.3816 0.0000 0.0000 0.0000 70.0790 -18.4540 41.9774 -40.6401 48.4446 -18.9168 0.0000 -0.0000 -15.9320 -27.7667 -16.4570 8.4834 7.1250 -0.0000 -0.0000 0.0282 -48.4407 -0.0024
-7.0868 16.2814 4.8835 -19.6713 79.2534 -8.9821 0.0000 0.0000 0.0000 -25.3540 -21.3063 -5.1410 0.1133 2.1705 5.9770 1.3302 -3.2754 -20.9727 1.9170 -8.6910 -24.8333 0.0000 0.0000 0.0000 31.9656 12.9710 -12.5678 -2.0905 -9.0521 25.9585 -0.6580 -2.3918 -16.3732 -5.4307 13.8530 -42.6518 2.2117 0.5854 9.5420 1.9606 1.6681 -9.3870 0.5599 0.7661 -15.9061 1.5277 -2.6291 -11.8834 -1.8529 -1.4873 44.1911 -1.1829 0.1894 18.7031 0.0000 0.0000 0.0000 -77.9562 11.6929 22.6205 19.6920 -30.2694 -5.3752 -0.0000 -0.0000 8.4863 34.9541 26.0278 17.0525 -7.1250 0.0000 -0.0000 6.1667 60.6617 2.3595 0.0000 0.0000 0.0000 70.1695 -18.2515 42.1250 -39.4476 47.7392 -18.0293 0.0000 -0.0000 -16.0236 -28.0313 -16.4221 8.5598 7.1250 -0.0000 -0.0000 -0.2356 -48.4440 0.0200
-7.0535 16.2984 4.8880 -19.3305 79.3153 -8.3705 0.0000 0.0000 0.0000 -25.4688 -21.8106 -4.9719 0.1083 2.1223 5.8439 1.3803 -3.5395 -21.3327 1.9420 -8.7441 -24.9982 0.0000 0.0000 0.0000 31.6255 14.8288 -12.3910 -1.8397 -8.5239 24.3170 -0.8132 -1.6480 -17.7072 -5.1193 13.5169 -41.3356 2.2736 0.5535 9.4097 1.9370 1.6252 -9.3689 0.5098 0.7383 -15.7952 1.5142 -2.5452 -12.1860 -1.9464 -1.4144 43.6429 -1.2160 0.1643 18.4412 0.0000 0.0000 0.0000 -78.1264 11.0837 22.6846 19.3371 -29.8354 -5.1975 -0.0000 -0.0000 8.5308 34.7928 26.5179 17.2352 -7.1250 0.0000 -0.0000 5.8644 61.1678 2.3139 0.0000 0.0000 0.0000 70.1964 -18.1423 42.4900 -38.0117 46.8468 -16.9741 0.0000 -0.0000 -15.9569 -28.2627 -16.3408 8.6011 7.1250 -0.0000 -0.0000 -0.4735 -48.3905 0.0396
-7.0166 16.3222 4.8900 -19.4910 79.3677 -8.2529 0.0000 0.0000 0.0000 -25.5486 -22.5884 -4.4773 0.0924 1.9600 5.3951 1.4732 -3.5966 -22.0580 1.9654 -8.7936 -25.1519 0.0000 0.0000 0.0000 31.3800 16.7250 -11.7579 -1.4870 -7.7041 21.8188 -0.9503 -1.6808 -19.0950 -4.7265 13.0690 -39.6272 2.5547 0.5235 9.2226 1.9350 1.6251 -9.3664 0.3518 0.7086 -15.6646 1.4652 -2.4658 -12.4875 -2.0838 -1.3097 43.1280 -1.2565 0.1438 18.2070 -0.0000 -0.0000 0.0000 -78.3015 10.4929 22.9267 19.0081 -29.4287 -5.0348 -0.0000 -0.0000 8.7273 34.8059 26.4705 17.2163 -7.1250 0.0000 -0.0000 5.8910 61.1184 2.3175 -0.0000 -0.0000 0.0000 70.1414 -18.1442 43.0474 -36.4395 45.8131 -15.8368 0.0000 -0.0000 -15.7125 -28.3795 -16.2207 8.5816 7.1250 -0.0000 -0.0000 -0.6047 -48.2756 0.0489
-6.9754 16.3493 4.8913 -19.8708 79.4205 -8.3643 0.0000 0.0000 0.0000 -25.6489 -23.5822 -3.6679 0.0686 1.6895 4.6483 1.6061 -3.4609 -23.0958 1.9916 -8.8486 -25.3227 0.0000 0.0000 0.0000 31.1809 18.6081 -10.7646 -1.1118 -6.6989 18.8263 -1.0719 -2.4208 -20.5693 -4.2590 12.4974 -37.5150 2.9524 0.4988 8.9869 1.9504 1.6538 -9.3883 0.1424 0.6822 -15.5313 1.3682 -2.3995 -12.7719 -2.2540 -1.1834 42.6735 -1.2984 0.1249 18.0111 0.0000 -0.0000 0.0000 -78.4858 9.9869 23.3588 18.7746 -29.1377 -4.9206 -0.0000 -0.0000 8.9478 34.5385 26.7182 17.1946 -7.1250 0.0000 -0.0000 5.4992 61.3235 2.1896 0.0000 -0.0000 0.0000 70.0064 -18.2567 43.7510 -34.7943 44.6647 -14.6686 0.0000 -0.0000 -15.2819 -28.3415 -16.0945 8.5043 7.1250 -0.0000 -0.0000 -0.5852 -48.1294 0.0452
-6.9295 16.3756 4.8938 -20.0899 79.4965 -8.3385 0.0000 0.0000 0.0000 -25.8482 -24.7155 -2.5631 0.0417 1.3184 3.6252 1.7727 -3.1644 -24.3707 2.0245 -8.9170 -25.5360 0.0000 0.0000 0.0000 30.9685 20.4157 -9.5085 -0.7726 -5.6125 15.6640 -1.1513 -3.8070 -21.9708 -3.7439 11.8116 -35.0688 3.3391 0.4803 8.7066 1.9708 1.6891 -9.4427 -0.0558 0.6617 -15.4100 1.2021 -2.3588 -13.0308 -2.4375 -1.0547 42.2966 -1.3323 0.1001 17.8598 0.0000 -0.0000 0.0000 -78.6723 9.6063 23.9769 18.6739 -29.0114 -4.8717 -0.0000 -0.0000 9.0714 34.0665 27.0323 17.0836 -7.1250 0.0000 -0.0000 4.8279 61.5463 1.9470 0.0000 -0.0000 0.0000 69.8191 -18.4599 44.5387 -33.0997 43.4065 -13.4905 0.0000 -0.0000 -14.6803 -28.1751 -15.9918 8.3944 7.1250 -0.0000 -0.0000 -0.4376 -47.9893 0.0323
-6.8788 16.3977 4.8999 -19.8447 79.6191 -7.8830 0.0000 0.0000 0.0000 -26.2196 -25.9264 -1.1662 0.0173 0.8503 2.3369 1.9676 -2.7321 -25.8196 2.0633 -8.9967 -25.7851 0.0000 0.0000 0.0000 30.7085 22.0542 -8.0703 -0.4990 -4.5289 12.5698 -1.1376 -5.7990 -23.0218 -3.2455 11.0822 -32.5577 3.6149 0.4664 8.3802 1.9810 1.7103 -9.5300 -0.1993 0.6470 -15.3013 0.9574 -2.3479 -13.2683 -2.6090 -0.9375 42.0027 -1.3479 0.0656 17.7555 -0.0000 0.0000 0.0000 -78.8512 9.3509 24.7324 18.7064 -29.0522 -4.8874 -0.0000 -0.0000 9.0478 32.9560 28.2431 17.0556 -7.1250 0.0000 -0.0000 3.0710 62.5806 1.3124 -0.0000 0.0000 0.0000 69.6280 -18.7283 45.3350 -31.3645 42.0347 -12.3132 0.0000 -0.0000 -13.9502 -27.9479 -15.9210 8.2804 7.1250 -0.0000 -0.0000 -0.2270 -47.8756 0.0161
-6.8230 16.4127 4.9111 -18.9199 79.8019 -6.7972 0.0000 0.0000 0.0000 -26.8340 -27.2509 0.5784 0.0021 0.2943 0.8087 2.2028 -2.1922 -27.5022 2.1051 -9.0817 -26.0511 0.0000 0.0000 0.0000 30.3967 23.4272 -6.5025 -0.2969 -3.5036 9.6841 -1.0106 -8.1452 -23.5927 -2.7362 10.2553 -29.8073 3.7155 0.4552 8.0019 1.9687 1.7025 -9.6427 -0.2629 0.6370 -15.1931 0.6652 -2.3602 -13.4725 -2.7746 -0.8309 41.7713 -1.3535 0.0248 17.6810 0.0000 -0.0000 0.0000 -79.0167 9.1957 25.5484 18.8443 -29.2248 -4.9546 -0.0000 -0.0000 8.9101 31.5972 29.7507 16.9746 -7.1250 0.0000 -0.0000 0.7629 63.8415 0.3484 0.0000 -0.0000 0.0000 69.4784 -19.0361 46.0764 -29.5966 40.5451 -11.1465 0.0000 -0.0000 -13.1675 -27.7410 -15.8889 8.1934 7.1250 -0.0000 -0.0000 -0.0311 -47.8083 0.0022
-6.7627 16.4185 4.9282 -17.2082 80.0454 -4.9806 0.0000 0.0000 0.0000 -27.7485 -28.7868 2.7189 0.0027 -0.3368 -0.9255 2.5010 -1.5492 -29.5289 2.1423 -9.1565 -26.2860 0.0000 0.0000 0.0000 30.0515 24.5102 -4.8201 -0.1568 -2.5514 7.0323 -0.7889 -10.5617 -23.7305 -2.1813 9.2339 -26.5298 3.6160 0.4444 7.5747 1.9278 1.6596 -9.7746 -0.2391 0.6308 -15.0797 0.3451 -2.3914 -13.6365 -2.9381 -0.7350 41.5851 -1.3542 -0.0206 17.6235 0.0000 0.0000 0.0000 -79.1709 9.1020 26.3474 19.0411 -29.4697 -5.0511 -0.0000 -0.0000 8.7448 30.5908 30.6881 16.7895 -7.1250 0.0000 -0.0000 -0.9730 64.5607 -0.4607 0.0000 0.0000 0.0000 69.4010 -19.3678 46.7101 -27.8192 38.9492 -10.0098 0.0000 -0.0000 -12.4123 -27.6007 -15.9211 8.1612 7.1250 -0.0000 -0.0000 0.1094 -47.8224 -0.0076
-6.6993 16.4140 4.9511 -14.6323 80.3382 -2.3645 0.0000 0.0000 0.0000 -29.0430 -30.7261 5.3340 0.0239 -0.9991 -2.7463 2.9161 -1.0087 -32.0985 2.1189 -9.1095 -26.1384 0.0000 0.0000 0.0000 29.7008 25.3924 -2.9758 -0.0659 -1.6567 4.5579 -0.5169 -12.9189 -23.7071 -1.5874 7.9479 -22.5558 3.3222 0.4310 7.1230 1.8526 1.5809 -9.9181 -0.1377 0.6266 -14.9670 0.0184 -2.4355 -13.7553 -3.1110 -0.6449 41.4275 -1.3583 -0.0677 17.5712 0.0000 -0.0000 0.0000 -79.3227 9.0255 27.0543 19.2476 -29.7252 -5.1530 -0.0000 -0.0000 8.6420 29.8683 31.1794 16.5583 -7.1250 0.0000 -0.0000 -2.1662 64.8755 -1.0417 0.0000 -0.0000 0.0000 69.4186 -19.7212 47.1737 -26.0805 37.2881 -8.9364 0.0000 -0.0000 -11.7381 -27.5012 -16.0693 8.1999 7.1250 -0.0000 -0.0000 0.2277 -47.9709 -0.0167
-6.6348 16.3993 4.9790 -11.2057 80.6578 1.0211 0.0000 0.0000 0.0000 -30.8486 -33.3406 8.5658 0.0631 -1.6209 -4.4591 3.5435 -0.8006 -35.5224 1.9990 -8.8640 -25.3707 0.0000 0.0000 0.0000 29.4042 26.2737 -0.8685 -0.0154 -0.8005 2.2000 -0.2370 -15.2437 -23.9193 -1.0390 6.4827 -18.1916 2.8697 0.4113 6.6915 1.7406 1.4692 -10.0574 0.0168 0.6210 -14.8633 -0.2800 -2.4833 -13.8296 -3.3162 -0.5512 41.2801 -1.3806 -0.1111 17.5135 0.0000 -0.0000 0.0000 -79.4807 8.9254 27.6151 19.4437 -29.9663 -5.2506 -0.0000 -0.0000 8.6022 29.2899 31.6115 16.3845 -7.1250 0.0000 -0.0000 -3.1596 65.1643 -1.5410 0.0000 -0.0000 0.0000 69.5457 -20.0886 47.4070 -24.4381 35.6242 -7.9603 0.0000 -0.0000 -11.1458 -27.3904 -16.3445 8.2959 7.1250 -0.0000 -0.0000 0.3776 -48.2574 -0.0303
